<svg xmlns="http://www.w3.org/2000/svg" width="32.893" height="33.005" viewBox="0 0 32.893 33.005"><defs><style>.a{fill:#fff;}</style></defs><g transform="translate(0)"><path class="a" d="M23.607,28.93a13.589,13.589,0,0,1-.347,3,1.256,1.256,0,0,1-1.471,1.05,1.281,1.281,0,0,1-1.064-1.5,18,18,0,0,0,.263-2.461A6.623,6.623,0,0,0,20.5,26.31a4.682,4.682,0,0,0-.728-1.1,1.163,1.163,0,0,1-.2-1.293,1.2,1.2,0,0,1,1.079-.791,12.7,12.7,0,0,0,5.643-1.7,7.224,7.224,0,0,0,3.64-4.377,11,11,0,0,0-.239-6.313,6.778,6.778,0,0,0-1.361-2.47,1.419,1.419,0,0,1-.231-1.486,4.694,4.694,0,0,0-.237-3.444.85.85,0,0,0-1.106-.567,7.9,7.9,0,0,0-3.893,1.913,1.173,1.173,0,0,1-1.388.237,11.084,11.084,0,0,0-3.51-.735,17.233,17.233,0,0,0-5.354.37,8.4,8.4,0,0,0-1.091.379,1.2,1.2,0,0,1-1.35-.234A7.946,7.946,0,0,0,6.2,2.758a.762.762,0,0,0-.959.44,4.515,4.515,0,0,0-.429,3.109c.059.269.134.534.182.8a1.35,1.35,0,0,1-.28,1.12,9.67,9.67,0,0,0-1.921,6.99,7.3,7.3,0,0,0,1.058,3.538A8.465,8.465,0,0,0,7.02,21.59a11.832,11.832,0,0,0,5.093,1.49,1.352,1.352,0,0,1,1.434,1.191,1.015,1.015,0,0,1-.262.917,4.854,4.854,0,0,0-1.221,3.168,11.568,11.568,0,0,0,.236,2.989,1.311,1.311,0,0,1-1.7,1.583,1.133,1.133,0,0,1-.577-.422,1.245,1.245,0,0,0-1.23-.482,9.354,9.354,0,0,1-5.731-1.161A11.646,11.646,0,0,1,.523,29.09a1.3,1.3,0,0,1,.029-2.1,1.312,1.312,0,0,1,1.57.068A16.068,16.068,0,0,0,3.789,28.3a7.663,7.663,0,0,0,4.3,1.19,3.554,3.554,0,0,0,.814-.123.659.659,0,0,0,.519-.645A13.294,13.294,0,0,1,9.8,26.143c.125-.472-.088-.756-.6-.893a14.858,14.858,0,0,1-4.986-2.364A9.6,9.6,0,0,1,.2,15.676,13.67,13.67,0,0,1,1.418,8.5a4.735,4.735,0,0,1,.48-.865,1.512,1.512,0,0,0,.29-1.186A7.552,7.552,0,0,1,3.531.972a2.2,2.2,0,0,1,2.461-.9A11.928,11.928,0,0,1,10.9,1.918a1.106,1.106,0,0,0,.942.154,19.91,19.91,0,0,1,9.4.013,1.165,1.165,0,0,0,.99-.224A10.1,10.1,0,0,1,25.551.367,14.022,14.022,0,0,1,27.767.007,1.527,1.527,0,0,1,29.187.6a7.376,7.376,0,0,1,1.647,5.986A1.2,1.2,0,0,0,31,7.437a12.856,12.856,0,0,1,1.877,7.576,9.789,9.789,0,0,1-4.906,8.443,15.926,15.926,0,0,1-3.983,1.735c-.748.213-.885.457-.7,1.21a11.113,11.113,0,0,1,.315,2.529" transform="translate(0 0)"/></g></svg>